<?xml version="1.0" encoding="UTF-8" standalone="no"?>
<!DOCTYPE svg PUBLIC "-//W3C//DTD SVG 1.1//EN" "http://www.w3.org/Graphics/SVG/1.1/DTD/svg11.dtd">
<svg width="1000px" height="500px" version="1.1" viewBox="0 -8 16 8" xmlns:xlink="http://www.w3.org/1999/xlink" xmlns="http://www.w3.org/2000/svg" onload="init(evt)">
<defs>
<script type="text/javascript"><![CDATA[
var svgDocument;
var data=new Array();
var from=0;

function init(evt) {
    if ( window.svgDocument == null )
        svgDocument = evt.target.ownerDocument;    
    load_data();
}

function load_data() {
  var xmlhttp=new XMLHttpRequest();
  xmlhttp.onreadystatechange=state_Change;
  xmlhttp.open("GET",'/cgi-bin/solarraw?from=' + from,true);
  xmlhttp.setRequestHeader('Content-Type', 'text/plain');
  xmlhttp.send(null);

	function state_Change() {
	if (xmlhttp.readyState==4) {
         if (xmlhttp.status==200)
    	 {	
		var length=15;
		var totallength=xmlhttp.responseText.length;
		var nrecords=totallength/length;
		for (var i=0;i<nrecords;i++) {
			data[from]=xmlhttp.responseText.substring(i*length,i*length-1);
			from=from+1;
		}
		alert(data[0]);
		alert(data[1]);
		alert(data[2]);
	 }
  	  else   {    alert("Problem retrieving XML data");}
  	 }
	}

}
]]></script>

</defs>
  <text x="87%" y="-2" font-family="Verdana" font-size="0.3">
    <tspan fill="blue">1 kW</tspan> / <tspan fill="green">10 kWh</tspan>
  </text>
<g transform="scale(1, -2)" style="background: white none repeat scroll 0% 0%; -moz-background-clip: -moz-initial; -moz-background-origin: -moz-initial; -moz-background-inline-policy: -moz-initial;">
<g id="line" style="stroke: red; stroke-width: 0.01;">
<line y1="0" x1="0%" x2="100%" y2="0"/>
<line y1="1" x1="0%" x2="100%" y2="1"/>
<line y1="2" x1="0%" x2="100%" y2="2"/>
<line y1="3" x1="0%" x2="100%" y2="3"/>
<line y1="4" x1="0%" x2="100%" y2="4"/>
</g>
<use xlink:href="#line" transform="scale(1, 0.2)"/>
<use xlink:href="#line" transform="translate(0, 1) scale(1, 0.2)"/>
<use xlink:href="#line" transform="translate(0, 2) scale(1, 0.2)"/>
<use xlink:href="#line" transform="translate(0, 3) scale(1, 0.2)"/>
<use xlink:href="#line" transform="translate(0, 4) scale(1, 0.2)"/>
<line id="vline" y1="0%" y2="100%" x1="0" x2="0" style="stroke: gray; stroke-width: 0.005;"/>
<use xlink:href="#vline" transform="translate(1)"/>
<use xlink:href="#vline" transform="translate(2)"/>
<use xlink:href="#vline" transform="translate(3)"/>
<use xlink:href="#vline" transform="translate(4)"/>
<use xlink:href="#vline" transform="translate(5)"/>
<use xlink:href="#vline" transform="translate(6)"/>
<use xlink:href="#vline" transform="translate(7)"/>
<use xlink:href="#vline" transform="translate(8)"/>
<use xlink:href="#vline" transform="translate(9)"/>
<use xlink:href="#vline" transform="translate(10)"/>
<use xlink:href="#vline" transform="translate(11)"/>
<use xlink:href="#vline" transform="translate(12)"/>
<use xlink:href="#vline" transform="translate(13)"/>
<use xlink:href="#vline" transform="translate(14)"/>
<use xlink:href="#vline" transform="translate(15)"/>
<use xlink:href="#vline" transform="translate(16)"/>
<path d="M 0.3437 0.1455 0.6197 0.1812 0.8449 0.2220 1.0232 0.2803 1.1729 0.3340 1.2980 0.3997 1.4100 0.4464 1.5107 0.4966 1.6052 0.5291 1.6969 0.5454 1.7795 0.6050 1.8568 0.6469 1.9280 0.7023 1.9809 0.9458 2.0389 0.8612 2.0888 1.0021 2.1365 1.0498 2.1828 1.0794 2.2298 1.0629 2.2723 1.1761 2.3293 0.8778 2.3799 0.9879 2.4229 1.1639 2.4664 1.1489 2.5027 1.3775 2.5543 0.9681 2.5988 1.1252 2.6349 1.3850 2.6773 1.1798 2.7425 0.7664 2.7720 1.6974 2.8209 1.0223 2.8606 1.2589 2.9116 0.9805 2.9681 0.8837 3.0293 0.8172 3.0910 0.8102 3.1525 0.8130 3.2191 0.7516 3.2886 0.7189 3.3517 0.7921 3.4088 0.8758 3.4580 1.0166 3.5165 0.8544 3.5625 1.0884 3.6208 0.8570 3.6611 1.2397 3.6979 1.3617 3.7289 1.6099 3.7687 1.2558 3.8014 1.5299 3.8253 2.0910 3.8537 1.7654 3.8920 1.3025 3.9289 1.3567 3.9627 1.4788 3.9941 1.5931 4.0220 1.7893 4.0482 1.9134 4.0973 1.0185 4.1496 0.9548 4.1982 1.0294 4.2438 1.0953 4.2914 1.0511 4.3358 1.1270 4.3718 1.3877 4.4224 0.9882 4.4634 1.2187 4.4802 2.9901 4.4946 3.4742 4.5090 3.4502 4.5312 2.2597 4.5458 3.4161 4.5785 1.5273 4.5955 2.9509 4.6141 2.6839 4.6302 3.1068 4.6502 2.4969 4.6753 1.9945 4.7320 0.8827 4.7602 1.7727 4.7750 3.3612 4.8121 1.3498 4.8267 3.4148 4.8412 3.4555 4.8558 3.4174 4.8705 3.4071 4.8854 3.3449 4.9000 3.4318 4.9146 3.4161 4.9343 2.5464 4.9500 3.1760 4.9649 3.3600 4.9797 3.3713 4.9946 3.3750 5.0092 3.4226 5.0236 3.4542 5.0379 3.5013 5.0522 3.5136 5.0664 3.5136 5.0803 3.5907 5.0942 3.5893 5.1084 3.5384 5.1380 1.6847 5.1693 1.5979 5.1914 2.2619 5.2092 2.8195 5.2237 3.4489 5.2412 2.8462 5.2733 1.5583 5.2878 3.4515 5.3115 2.1106 5.3502 1.2913 5.3944 1.1325 5.4306 1.3794 5.4489 2.7304 5.4646 3.1895 5.5008 1.3822 5.5396 1.2885 5.5765 1.3543 5.5904 3.5950 5.6046 3.5163 5.6185 3.5950 5.6350 3.0448 5.6765 1.2024 5.7060 1.6952 5.7221 3.1133 5.7637 1.2019 5.7975 1.4791 5.8245 1.8512 5.8384 3.5965 5.8523 3.5965 5.8662 3.5922 5.8801 3.5994 5.8941 3.5879 5.9080 3.5936 5.9220 3.5609 5.9363 3.5013 5.9502 3.5950 5.9641 3.5979 5.9780 3.5979 5.9919 3.5979 6.0058 3.5979 6.0197 3.5965 6.0341 3.4715 6.0480 3.5965 6.0619 3.5979 6.0760 3.5398 6.1077 1.5807 6.1554 1.0478 6.1881 1.5265 6.2038 3.1861 6.2177 3.5979 6.2316 3.5980 6.2455 3.5965 6.2594 3.5979 6.2780 2.6847 6.2925 3.4528 6.3064 3.5965 6.3203 3.5965 6.3342 3.5979 6.3481 3.5979 6.3699 2.2989 6.4026 1.5296 6.4187 3.0908 6.4326 3.5950 6.4466 3.5950 6.4605 3.5950 6.4744 3.5965 6.4885 3.5469 6.5024 3.5965 6.5163 3.5893 6.5302 3.5979 6.5443 3.5398 6.5582 3.5950 6.5721 3.5980 6.5860 3.5965 6.5999 3.5965 6.6144 3.4542 6.6358 2.3390 6.6508 3.3313 6.6661 3.2624 6.6800 3.5950 6.6939 3.5965 6.7083 3.4823 6.7241 3.1648 6.7392 3.3080 6.7535 3.5054 6.7707 2.9089 6.7857 3.3251 6.8026 2.9596 6.8460 1.1520 6.8716 1.9512 6.8888 2.9135 6.9027 3.5922 6.9166 3.5922 6.9305 3.5965 6.9444 3.5965 6.9583 3.5950 6.9722 3.5965 6.9861 3.5965 7.0000 3.5950 7.0141 3.5497 7.0304 3.0697 7.0535 2.1614 7.0880 1.4521 7.1131 1.9888 7.1280 3.3499 7.1459 2.7940 7.1615 3.2215 7.1754 3.5965 7.1893 3.5950 7.2032 3.5965 7.2171 3.5922 7.2325 3.2389 7.2673 1.4374 7.3019 1.4437 7.3159 3.5907 7.3298 3.5907 7.3437 3.5922 7.3576 3.5907 7.3723 3.4096 7.3862 3.5922 7.4001 3.5922 7.4141 3.5922 7.4280 3.5950 7.4419 3.5965 7.4575 3.1929 7.4833 1.9386 7.4987 3.2541 7.5126 3.5950 7.5265 3.5950 7.5404 3.5950 7.5543 3.5965 7.5682 3.5965 7.5821 3.5965 7.6083 1.9106 7.6325 2.0622 7.6599 1.8301 7.6738 3.5950 7.6877 3.5965 7.7016 3.5936 7.7155 3.5907 7.7294 3.5965 7.7433 3.5922 7.7575 3.5204 7.7752 2.8283 7.7963 2.3724 7.8106 3.5040 7.8245 3.5950 7.8384 3.5965 7.8547 3.0583 7.8686 3.5922 7.8825 3.5950 7.8965 3.5936 7.9131 3.0061 7.9350 2.2780 7.9489 3.5965 7.9628 3.5950 7.9769 3.5581 7.9909 3.5822 8.0051 3.5013 8.0198 3.4096 8.0344 3.4305 8.0484 3.5538 8.0624 3.5864 8.0763 3.5965 8.0902 3.5950 8.1041 3.5965 8.1180 3.5950 8.1319 3.5965 8.1458 3.5879 8.1608 3.3424 8.1747 3.5922 8.1886 3.5950 8.2040 3.2613 8.2316 1.8106 8.2512 2.5529 8.2651 3.5950 8.2791 3.5665 8.2931 3.5693 8.3075 3.4810 8.3214 3.5879 8.3368 3.2541 8.3672 1.6446 8.3913 2.0698 8.4055 3.5246 8.4200 3.4621 8.4348 3.3688 8.4496 3.3814 8.4645 3.3537 8.4793 3.3687 8.4942 3.3688 8.5087 3.4449 8.5234 3.4032 8.5380 3.4161 8.5528 3.3865 8.5675 3.3955 8.5824 3.3687 8.5970 3.4058 8.6116 3.4318 8.6264 3.3713 8.6409 3.4621 8.6551 3.5218 8.6696 3.4383 8.6856 3.1361 8.6995 3.5850 8.7134 3.5965 8.7276 3.5343 8.7418 3.5218 8.7564 3.4213 8.7707 3.4822 8.7853 3.4213 8.8006 3.2862 8.8165 3.1449 8.8322 3.1839 8.8473 3.3092 8.8628 3.2158 8.8782 3.2553 8.8933 3.3032 8.9091 3.1582 8.9253 3.0993 8.9414 3.0940 8.9577 3.0713 8.9732 3.2192 8.9887 3.2459 9.0039 3.2779 9.0187 3.3789 9.0337 3.3450 9.0491 3.2471 9.0644 3.2577 9.0799 3.2273 9.0964 3.0223 9.1124 3.1307 9.1286 3.0866 9.1450 3.0510 9.1623 2.8902 9.1794 2.9287 9.1963 2.9606 9.2131 2.9596 9.2296 3.0355 9.2455 3.1570 9.2635 2.7683 9.2795 3.1372 9.2958 3.0561 9.3124 3.0212 9.3302 2.8045 9.3477 2.8589 9.3650 2.8818 9.3816 3.0121 9.3980 3.0531 9.4142 3.0929 9.4305 3.0718 9.4476 2.9202 9.4640 3.0448 9.4813 2.8938 9.4980 2.9841 9.5148 2.9871 9.5312 3.0397 9.5477 3.0345 9.5645 2.9841 9.5920 1.8164 9.6101 2.7606 9.6288 2.6728 9.6474 2.6847 9.6659 2.7066 9.6835 2.8462 9.7017 2.7362 9.7211 2.5889 9.7398 2.6649 9.7586 2.6554 9.7780 2.5844 9.7967 2.6680 9.8152 2.7033 9.8340 2.6704 9.8593 1.9739 9.8793 2.4983 9.8966 2.8836 9.9150 2.7263 9.9393 2.0575 " style="fill: none; stroke: yellow; stroke-width: 0.02;"/>
<path d="M 0.3437 0.0100 0.6197 0.0150 0.8449 0.0200 1.0232 0.0250 1.1729 0.0300 1.2980 0.0350 1.4100 0.0400 1.5107 0.0450 1.6052 0.0500 1.6969 0.0550 1.7795 0.0600 1.8568 0.0650 1.9280 0.0700 1.9809 0.0750 2.0389 0.0800 2.0888 0.0850 2.1365 0.0900 2.1828 0.0950 2.2298 0.1000 2.2723 0.1050 2.3293 0.1100 2.3799 0.1150 2.4229 0.1200 2.4664 0.1250 2.5027 0.1300 2.5543 0.1350 2.5988 0.1400 2.6349 0.1450 2.6773 0.1500 2.7425 0.1550 2.7720 0.1600 2.8209 0.1650 2.8606 0.1700 2.9116 0.1750 2.9681 0.1800 3.0293 0.1850 3.0910 0.1900 3.1525 0.1950 3.2191 0.2000 3.2886 0.2050 3.3517 0.2100 3.4088 0.2150 3.4580 0.2200 3.5165 0.2250 3.5625 0.2300 3.6208 0.2350 3.6611 0.2400 3.6979 0.2450 3.7289 0.2500 3.7687 0.2550 3.8014 0.2600 3.8253 0.2650 3.8537 0.2700 3.8920 0.2750 3.9289 0.2800 3.9627 0.2850 3.9941 0.2900 4.0220 0.2950 4.0482 0.3000 4.0973 0.3050 4.1496 0.3100 4.1982 0.3150 4.2438 0.3200 4.2914 0.3250 4.3358 0.3300 4.3718 0.3350 4.4224 0.3400 4.4634 0.3450 4.4802 0.3500 4.4946 0.3550 4.5090 0.3600 4.5312 0.3650 4.5458 0.3700 4.5785 0.3750 4.5955 0.3800 4.6141 0.3850 4.6302 0.3900 4.6502 0.3950 4.6753 0.4000 4.7320 0.4050 4.7602 0.4100 4.7750 0.4150 4.8121 0.4200 4.8267 0.4250 4.8412 0.4300 4.8558 0.4350 4.8705 0.4400 4.8854 0.4450 4.9000 0.4500 4.9146 0.4550 4.9343 0.4600 4.9500 0.4650 4.9649 0.4700 4.9797 0.4750 4.9946 0.4800 5.0092 0.4850 5.0236 0.4900 5.0379 0.4950 5.0522 0.5000 5.0664 0.5050 5.0803 0.5100 5.0942 0.5150 5.1084 0.5200 5.1380 0.5250 5.1693 0.5300 5.1914 0.5350 5.2092 0.5400 5.2237 0.5450 5.2412 0.5500 5.2733 0.5550 5.2878 0.5600 5.3115 0.5650 5.3502 0.5700 5.3944 0.5750 5.4306 0.5800 5.4489 0.5850 5.4646 0.5900 5.5008 0.5950 5.5396 0.6000 5.5765 0.6050 5.5904 0.6100 5.6046 0.6150 5.6185 0.6200 5.6350 0.6250 5.6765 0.6300 5.7060 0.6350 5.7221 0.6400 5.7637 0.6450 5.7975 0.6500 5.8245 0.6550 5.8384 0.6600 5.8523 0.6650 5.8662 0.6700 5.8801 0.6750 5.8941 0.6800 5.9080 0.6850 5.9220 0.6900 5.9363 0.6950 5.9502 0.7000 5.9641 0.7050 5.9780 0.7100 5.9919 0.7150 6.0058 0.7200 6.0197 0.7250 6.0341 0.7300 6.0480 0.7350 6.0619 0.7400 6.0760 0.7450 6.1077 0.7500 6.1554 0.7550 6.1881 0.7600 6.2038 0.7650 6.2177 0.7700 6.2316 0.7750 6.2455 0.7800 6.2594 0.7850 6.2780 0.7900 6.2925 0.7950 6.3064 0.8000 6.3203 0.8050 6.3342 0.8100 6.3481 0.8150 6.3699 0.8200 6.4026 0.8250 6.4187 0.8300 6.4326 0.8350 6.4466 0.8400 6.4605 0.8450 6.4744 0.8500 6.4885 0.8550 6.5024 0.8600 6.5163 0.8650 6.5302 0.8700 6.5443 0.8750 6.5582 0.8800 6.5721 0.8850 6.5860 0.8900 6.5999 0.8950 6.6144 0.9000 6.6358 0.9050 6.6508 0.9100 6.6661 0.9150 6.6800 0.9200 6.6939 0.9250 6.7083 0.9300 6.7241 0.9350 6.7392 0.9400 6.7535 0.9450 6.7707 0.9500 6.7857 0.9550 6.8026 0.9600 6.8460 0.9650 6.8716 0.9700 6.8888 0.9750 6.9027 0.9800 6.9166 0.9850 6.9305 0.9900 6.9444 0.9950 6.9583 1.0000 6.9722 1.0050 6.9861 1.0100 7.0000 1.0150 7.0141 1.0200 7.0304 1.0250 7.0535 1.0300 7.0880 1.0350 7.1131 1.0400 7.1280 1.0450 7.1459 1.0500 7.1615 1.0550 7.1754 1.0600 7.1893 1.0650 7.2032 1.0700 7.2171 1.0750 7.2325 1.0800 7.2673 1.0850 7.3019 1.0900 7.3159 1.0950 7.3298 1.1000 7.3437 1.1050 7.3576 1.1100 7.3723 1.1150 7.3862 1.1200 7.4001 1.1250 7.4141 1.1300 7.4280 1.1350 7.4419 1.1400 7.4575 1.1450 7.4833 1.1500 7.4987 1.1550 7.5126 1.1600 7.5265 1.1650 7.5404 1.1700 7.5543 1.1750 7.5682 1.1800 7.5821 1.1850 7.6083 1.1900 7.6325 1.1950 7.6599 1.2000 7.6738 1.2050 7.6877 1.2100 7.7016 1.2150 7.7155 1.2200 7.7294 1.2250 7.7433 1.2300 7.7575 1.2350 7.7752 1.2400 7.7963 1.2450 7.8106 1.2500 7.8245 1.2550 7.8384 1.2600 7.8547 1.2650 7.8686 1.2700 7.8825 1.2750 7.8965 1.2800 7.9131 1.2850 7.9350 1.2900 7.9489 1.2950 7.9628 1.3000 7.9769 1.3050 7.9909 1.3100 8.0051 1.3150 8.0198 1.3200 8.0344 1.3250 8.0484 1.3300 8.0624 1.3350 8.0763 1.3400 8.0902 1.3450 8.1041 1.3500 8.1180 1.3550 8.1319 1.3600 8.1458 1.3650 8.1608 1.3700 8.1747 1.3750 8.1886 1.3800 8.2040 1.3850 8.2316 1.3900 8.2512 1.3950 8.2651 1.4000 8.2791 1.4050 8.2931 1.4100 8.3075 1.4150 8.3214 1.4200 8.3368 1.4250 8.3672 1.4300 8.3913 1.4350 8.4055 1.4400 8.4200 1.4450 8.4348 1.4500 8.4496 1.4550 8.4645 1.4600 8.4793 1.4650 8.4942 1.4700 8.5087 1.4750 8.5234 1.4800 8.5380 1.4850 8.5528 1.4900 8.5675 1.4950 8.5824 1.5000 8.5970 1.5050 8.6116 1.5100 8.6264 1.5150 8.6409 1.5200 8.6551 1.5250 8.6696 1.5300 8.6856 1.5350 8.6995 1.5400 8.7134 1.5450 8.7276 1.5500 8.7418 1.5550 8.7564 1.5600 8.7707 1.5650 8.7853 1.5700 8.8006 1.5750 8.8165 1.5800 8.8322 1.5850 8.8473 1.5900 8.8628 1.5950 8.8782 1.6000 8.8933 1.6050 8.9091 1.6100 8.9253 1.6150 8.9414 1.6200 8.9577 1.6250 8.9732 1.6300 8.9887 1.6350 9.0039 1.6400 9.0187 1.6450 9.0337 1.6500 9.0491 1.6550 9.0644 1.6600 9.0799 1.6650 9.0964 1.6700 9.1124 1.6750 9.1286 1.6800 9.1450 1.6850 9.1623 1.6900 9.1794 1.6950 9.1963 1.7000 9.2131 1.7050 9.2296 1.7100 9.2455 1.7150 9.2635 1.7200 9.2795 1.7250 9.2958 1.7300 9.3124 1.7350 9.3302 1.7400 9.3477 1.7450 9.3650 1.7500 9.3816 1.7550 9.3980 1.7600 9.4142 1.7650 9.4305 1.7700 9.4476 1.7750 9.4640 1.7800 9.4813 1.7850 9.4980 1.7900 9.5148 1.7950 9.5312 1.8000 9.5477 1.8050 9.5645 1.8100 9.5920 1.8150 9.6101 1.8200 9.6288 1.8250 9.6474 1.8300 9.6659 1.8350 9.6835 1.8400 9.7017 1.8450 9.7211 1.8500 9.7398 1.8550 9.7586 1.8600 9.7780 1.8650 9.7967 1.8700 9.8152 1.8750 9.8340 1.8800 9.8593 1.8850 9.8793 1.8900 9.8966 1.8950 9.9150 1.9000 9.9393 1.9050 " style="fill: none; stroke: green; stroke-width: 0.03;"/>
<line x1="9.93927555554443" x2="25.9392755555444" y1="1.905" y2="5.1969552819774" style="stroke-width: 0.005; stroke: green; stroke-dasharray: 0.05, 0.025;"/>
</g>
</svg>
