<?xml version="1.0" encoding="UTF-8" standalone="yes"?>
<!DOCTYPE svg PUBLIC "-//W3C//DTD SVG 1.0//EN" "http://www.w3.org/TR/2001/REC-SVG-20010904/DTD/svg10.dtd">
<svg height="600" width="1200" xmlns="http://www.w3.org/2000/svg" xmlns:svg="http://www.w3.org/2000/svg" xmlns:xlink="http://www.w3.org/1999/xlink">
	<g id="n4943394">
		<g id="axis4978551" />
		<g id="line1771954" />
		<g id="scatter2564996" />
		<g id="axisn3722712">
			<line style="stroke: black; stroke-width: 2" x1="30" x2="1170" y1="570" y2="570" />
			<line style="stroke: black; stroke-width: 2" x1="30" x2="30" y1="30" y2="570" />
			<line style="stroke: black; stroke-width: 2" x1="30" x2="30" y1="570" y2="573.75" />			<text transform="rotate(90,30,577.5)" x="30" y="577.5">
			</text>			<text transform="rotate(90,28.4497133927707,577.5)" x="28.4497133927707" y="577.5">
			</text>
			<line style="stroke: black; stroke-width: 2" x1="49.3543896264059" x2="49.3543896264059" y1="570" y2="573.75" />			<text transform="rotate(90,49.3543896264059,577.5)" x="49.3543896264059" y="577.5">
			</text>			<text transform="rotate(90,47.8041030191766,577.5)" x="47.8041030191766" y="577.5">
			</text>
			<line style="stroke: black; stroke-width: 2" x1="68.7087792528118" x2="68.7087792528118" y1="570" y2="573.75" />			<text transform="rotate(90,68.7087792528118,577.5)" x="68.7087792528118" y="577.5">
			</text>			<text transform="rotate(90,67.1584926455824,577.5)" x="67.1584926455824" y="577.5">
			</text>
			<line style="stroke: black; stroke-width: 2" x1="88.0631688792176" x2="88.0631688792176" y1="570" y2="573.75" />			<text transform="rotate(90,88.0631688792176,577.5)" x="88.0631688792176" y="577.5">
			</text>			<text transform="rotate(90,86.5128822719883,577.5)" x="86.5128822719883" y="577.5">
			</text>
			<line style="stroke: black; stroke-width: 2" x1="107.417558505624" x2="107.417558505624" y1="570" y2="573.75" />			<text transform="rotate(90,107.417558505624,577.5)" x="107.417558505624" y="577.5">
			</text>			<text transform="rotate(90,105.867271898394,577.5)" x="105.867271898394" y="577.5">
			</text>
			<line style="stroke: black; stroke-width: 2" x1="126.771948132029" x2="126.771948132029" y1="570" y2="573.75" />			<text transform="rotate(90,126.771948132029,577.5)" x="126.771948132029" y="577.5">
			</text>			<text transform="rotate(90,125.2216615248,577.5)" x="125.2216615248" y="577.5">
			</text>
			<line style="stroke: black; stroke-width: 2" x1="146.126337758435" x2="146.126337758435" y1="570" y2="573.75" />			<text transform="rotate(90,146.126337758435,577.5)" x="146.126337758435" y="577.5">
			</text>			<text transform="rotate(90,144.576051151206,577.5)" x="144.576051151206" y="577.5">
			</text>
			<line style="stroke: black; stroke-width: 2" x1="165.480727384841" x2="165.480727384841" y1="570" y2="573.75" />			<text transform="rotate(90,165.480727384841,577.5)" x="165.480727384841" y="577.5">
			</text>			<text transform="rotate(90,163.930440777612,577.5)" x="163.930440777612" y="577.5">
			</text>
			<line style="stroke: black; stroke-width: 2" x1="184.835117011247" x2="184.835117011247" y1="570" y2="573.75" />			<text transform="rotate(90,184.835117011247,577.5)" x="184.835117011247" y="577.5">
			</text>			<text transform="rotate(90,183.284830404018,577.5)" x="183.284830404018" y="577.5">
			</text>
			<line style="stroke: black; stroke-width: 2" x1="204.189506637653" x2="204.189506637653" y1="570" y2="573.75" />			<text transform="rotate(90,204.189506637653,577.5)" x="204.189506637653" y="577.5">
			</text>			<text transform="rotate(90,202.639220030424,577.5)" x="202.639220030424" y="577.5">
			</text>
			<line style="stroke: black; stroke-width: 2" x1="223.543896264059" x2="223.543896264059" y1="570" y2="573.75" />			<text transform="rotate(90,223.543896264059,577.5)" x="223.543896264059" y="577.5">
			</text>			<text transform="rotate(90,221.99360965683,577.5)" x="221.99360965683" y="577.5">
			</text>
			<line style="stroke: black; stroke-width: 2" x1="242.898285890465" x2="242.898285890465" y1="570" y2="573.75" />			<text transform="rotate(90,242.898285890465,577.5)" x="242.898285890465" y="577.5">
			</text>			<text transform="rotate(90,241.347999283235,577.5)" x="241.347999283235" y="577.5">
			</text>
			<line style="stroke: black; stroke-width: 2" x1="262.252675516871" x2="262.252675516871" y1="570" y2="573.75" />			<text transform="rotate(90,262.252675516871,577.5)" x="262.252675516871" y="577.5">
			</text>			<text transform="rotate(90,260.702388909641,577.5)" x="260.702388909641" y="577.5">
			</text>
			<line style="stroke: black; stroke-width: 2" x1="281.607065143276" x2="281.607065143276" y1="570" y2="573.75" />			<text transform="rotate(90,281.607065143276,577.5)" x="281.607065143276" y="577.5">
			</text>			<text transform="rotate(90,280.056778536047,577.5)" x="280.056778536047" y="577.5">
			</text>
			<line style="stroke: black; stroke-width: 2" x1="300.961454769682" x2="300.961454769682" y1="570" y2="573.75" />			<text transform="rotate(90,300.961454769682,577.5)" x="300.961454769682" y="577.5">
			</text>			<text transform="rotate(90,299.411168162453,577.5)" x="299.411168162453" y="577.5">
			</text>
			<line style="stroke: black; stroke-width: 2" x1="320.315844396088" x2="320.315844396088" y1="570" y2="573.75" />			<text transform="rotate(90,320.315844396088,577.5)" x="320.315844396088" y="577.5">
			</text>			<text transform="rotate(90,318.765557788859,577.5)" x="318.765557788859" y="577.5">
			</text>
			<line style="stroke: black; stroke-width: 2" x1="339.670234022494" x2="339.670234022494" y1="570" y2="573.75" />			<text transform="rotate(90,339.670234022494,577.5)" x="339.670234022494" y="577.5">
			</text>			<text transform="rotate(90,338.119947415265,577.5)" x="338.119947415265" y="577.5">
			</text>
			<line style="stroke: black; stroke-width: 2" x1="359.0246236489" x2="359.0246236489" y1="570" y2="573.75" />			<text transform="rotate(90,359.0246236489,577.5)" x="359.0246236489" y="577.5">
			</text>			<text transform="rotate(90,357.474337041671,577.5)" x="357.474337041671" y="577.5">
			</text>
			<line style="stroke: black; stroke-width: 2" x1="378.379013275306" x2="378.379013275306" y1="570" y2="573.75" />			<text transform="rotate(90,378.379013275306,577.5)" x="378.379013275306" y="577.5">
			</text>			<text transform="rotate(90,376.828726668077,577.5)" x="376.828726668077" y="577.5">
			</text>
			<line style="stroke: black; stroke-width: 2" x1="397.733402901712" x2="397.733402901712" y1="570" y2="573.75" />			<text transform="rotate(90,397.733402901712,577.5)" x="397.733402901712" y="577.5">
			</text>			<text transform="rotate(90,396.183116294482,577.5)" x="396.183116294482" y="577.5">
			</text>
			<line style="stroke: black; stroke-width: 2" x1="417.087792528118" x2="417.087792528118" y1="570" y2="573.75" />			<text transform="rotate(90,417.087792528118,577.5)" x="417.087792528118" y="577.5">
			</text>			<text transform="rotate(90,415.537505920888,577.5)" x="415.537505920888" y="577.5">
			</text>
			<line style="stroke: black; stroke-width: 2" x1="436.442182154524" x2="436.442182154524" y1="570" y2="573.75" />			<text transform="rotate(90,436.442182154524,577.5)" x="436.442182154524" y="577.5">
			</text>			<text transform="rotate(90,434.891895547294,577.5)" x="434.891895547294" y="577.5">
			</text>
			<line style="stroke: black; stroke-width: 2" x1="455.796571780929" x2="455.796571780929" y1="570" y2="573.75" />			<text transform="rotate(90,455.796571780929,577.5)" x="455.796571780929" y="577.5">
			</text>			<text transform="rotate(90,454.2462851737,577.5)" x="454.2462851737" y="577.5">
			</text>
			<line style="stroke: black; stroke-width: 2" x1="475.150961407335" x2="475.150961407335" y1="570" y2="573.75" />			<text transform="rotate(90,475.150961407335,577.5)" x="475.150961407335" y="577.5">
			</text>			<text transform="rotate(90,473.600674800106,577.5)" x="473.600674800106" y="577.5">
			</text>
			<line style="stroke: black; stroke-width: 2" x1="494.505351033741" x2="494.505351033741" y1="570" y2="573.75" />			<text transform="rotate(90,494.505351033741,577.5)" x="494.505351033741" y="577.5">
			</text>			<text transform="rotate(90,492.955064426512,577.5)" x="492.955064426512" y="577.5">
			</text>
			<line style="stroke: black; stroke-width: 2" x1="513.859740660147" x2="513.859740660147" y1="570" y2="573.75" />			<text transform="rotate(90,513.859740660147,577.5)" x="513.859740660147" y="577.5">
			</text>			<text transform="rotate(90,512.309454052918,577.5)" x="512.309454052918" y="577.5">
			</text>
			<line style="stroke: black; stroke-width: 2" x1="533.214130286553" x2="533.214130286553" y1="570" y2="573.75" />			<text transform="rotate(90,533.214130286553,577.5)" x="533.214130286553" y="577.5">
			</text>			<text transform="rotate(90,531.663843679324,577.5)" x="531.663843679324" y="577.5">
			</text>
			<line style="stroke: black; stroke-width: 2" x1="552.568519912959" x2="552.568519912959" y1="570" y2="573.75" />			<text transform="rotate(90,552.568519912959,577.5)" x="552.568519912959" y="577.5">
			</text>			<text transform="rotate(90,551.018233305729,577.5)" x="551.018233305729" y="577.5">
			</text>
			<line style="stroke: black; stroke-width: 2" x1="571.922909539365" x2="571.922909539365" y1="570" y2="573.75" />			<text transform="rotate(90,571.922909539365,577.5)" x="571.922909539365" y="577.5">
			</text>			<text transform="rotate(90,570.372622932135,577.5)" x="570.372622932135" y="577.5">
			</text>
			<line style="stroke: black; stroke-width: 2" x1="591.277299165771" x2="591.277299165771" y1="570" y2="573.75" />			<text transform="rotate(90,591.277299165771,577.5)" x="591.277299165771" y="577.5">
			</text>			<text transform="rotate(90,589.727012558541,577.5)" x="589.727012558541" y="577.5">
			</text>
			<line style="stroke: black; stroke-width: 2" x1="610.631688792177" x2="610.631688792177" y1="570" y2="573.75" />			<text transform="rotate(90,610.631688792177,577.5)" x="610.631688792177" y="577.5">
			</text>			<text transform="rotate(90,609.081402184947,577.5)" x="609.081402184947" y="577.5">
			</text>
			<line style="stroke: black; stroke-width: 2" x1="629.986078418582" x2="629.986078418582" y1="570" y2="573.75" />			<text transform="rotate(90,629.986078418582,577.5)" x="629.986078418582" y="577.5">
			</text>			<text transform="rotate(90,628.435791811353,577.5)" x="628.435791811353" y="577.5">
			</text>
			<line style="stroke: black; stroke-width: 2" x1="649.340468044988" x2="649.340468044988" y1="570" y2="573.75" />			<text transform="rotate(90,649.340468044988,577.5)" x="649.340468044988" y="577.5">
			</text>			<text transform="rotate(90,647.790181437759,577.5)" x="647.790181437759" y="577.5">
			</text>
			<line style="stroke: black; stroke-width: 2" x1="668.694857671394" x2="668.694857671394" y1="570" y2="573.75" />			<text transform="rotate(90,668.694857671394,577.5)" x="668.694857671394" y="577.5">
			</text>			<text transform="rotate(90,667.144571064165,577.5)" x="667.144571064165" y="577.5">
			</text>
			<line style="stroke: black; stroke-width: 2" x1="688.0492472978" x2="688.0492472978" y1="570" y2="573.75" />			<text transform="rotate(90,688.0492472978,577.5)" x="688.0492472978" y="577.5">
			</text>			<text transform="rotate(90,686.498960690571,577.5)" x="686.498960690571" y="577.5">
			</text>
			<line style="stroke: black; stroke-width: 2" x1="707.403636924206" x2="707.403636924206" y1="570" y2="573.75" />			<text transform="rotate(90,707.403636924206,577.5)" x="707.403636924206" y="577.5">
			</text>			<text transform="rotate(90,705.853350316977,577.5)" x="705.853350316977" y="577.5">
			</text>
			<line style="stroke: black; stroke-width: 2" x1="726.758026550612" x2="726.758026550612" y1="570" y2="573.75" />			<text transform="rotate(90,726.758026550612,577.5)" x="726.758026550612" y="577.5">
			</text>			<text transform="rotate(90,725.207739943382,577.5)" x="725.207739943382" y="577.5">
			</text>
			<line style="stroke: black; stroke-width: 2" x1="746.112416177018" x2="746.112416177018" y1="570" y2="573.75" />			<text transform="rotate(90,746.112416177018,577.5)" x="746.112416177018" y="577.5">
			</text>			<text transform="rotate(90,744.562129569788,577.5)" x="744.562129569788" y="577.5">
			</text>
			<line style="stroke: black; stroke-width: 2" x1="765.466805803424" x2="765.466805803424" y1="570" y2="573.75" />			<text transform="rotate(90,765.466805803424,577.5)" x="765.466805803424" y="577.5">
			</text>			<text transform="rotate(90,763.916519196194,577.5)" x="763.916519196194" y="577.5">
			</text>
			<line style="stroke: black; stroke-width: 2" x1="784.821195429829" x2="784.821195429829" y1="570" y2="573.75" />			<text transform="rotate(90,784.821195429829,577.5)" x="784.821195429829" y="577.5">
			</text>			<text transform="rotate(90,783.2709088226,577.5)" x="783.2709088226" y="577.5">
			</text>
			<line style="stroke: black; stroke-width: 2" x1="804.175585056235" x2="804.175585056235" y1="570" y2="573.75" />			<text transform="rotate(90,804.175585056235,577.5)" x="804.175585056235" y="577.5">
			</text>			<text transform="rotate(90,802.625298449006,577.5)" x="802.625298449006" y="577.5">
			</text>
			<line style="stroke: black; stroke-width: 2" x1="823.529974682641" x2="823.529974682641" y1="570" y2="573.75" />			<text transform="rotate(90,823.529974682641,577.5)" x="823.529974682641" y="577.5">
			</text>			<text transform="rotate(90,821.979688075412,577.5)" x="821.979688075412" y="577.5">
			</text>
			<line style="stroke: black; stroke-width: 2" x1="842.884364309047" x2="842.884364309047" y1="570" y2="573.75" />			<text transform="rotate(90,842.884364309047,577.5)" x="842.884364309047" y="577.5">
			</text>			<text transform="rotate(90,841.334077701818,577.5)" x="841.334077701818" y="577.5">
			</text>
			<line style="stroke: black; stroke-width: 2" x1="862.238753935453" x2="862.238753935453" y1="570" y2="573.75" />			<text transform="rotate(90,862.238753935453,577.5)" x="862.238753935453" y="577.5">
			</text>			<text transform="rotate(90,860.688467328224,577.5)" x="860.688467328224" y="577.5">
			</text>
			<line style="stroke: black; stroke-width: 2" x1="881.593143561859" x2="881.593143561859" y1="570" y2="573.75" />			<text transform="rotate(90,881.593143561859,577.5)" x="881.593143561859" y="577.5">
			</text>			<text transform="rotate(90,880.04285695463,577.5)" x="880.04285695463" y="577.5">
			</text>
			<line style="stroke: black; stroke-width: 2" x1="900.947533188265" x2="900.947533188265" y1="570" y2="573.75" />			<text transform="rotate(90,900.947533188265,577.5)" x="900.947533188265" y="577.5">
			</text>			<text transform="rotate(90,899.397246581035,577.5)" x="899.397246581035" y="577.5">
			</text>
			<line style="stroke: black; stroke-width: 2" x1="920.301922814671" x2="920.301922814671" y1="570" y2="573.75" />			<text transform="rotate(90,920.301922814671,577.5)" x="920.301922814671" y="577.5">
			</text>			<text transform="rotate(90,918.751636207441,577.5)" x="918.751636207441" y="577.5">
			</text>
			<line style="stroke: black; stroke-width: 2" x1="939.656312441076" x2="939.656312441076" y1="570" y2="573.75" />			<text transform="rotate(90,939.656312441076,577.5)" x="939.656312441076" y="577.5">
			</text>			<text transform="rotate(90,938.106025833847,577.5)" x="938.106025833847" y="577.5">
			</text>
			<line style="stroke: black; stroke-width: 2" x1="959.010702067482" x2="959.010702067482" y1="570" y2="573.75" />			<text transform="rotate(90,959.010702067482,577.5)" x="959.010702067482" y="577.5">
			</text>			<text transform="rotate(90,957.460415460253,577.5)" x="957.460415460253" y="577.5">
			</text>
			<line style="stroke: black; stroke-width: 2" x1="978.365091693888" x2="978.365091693888" y1="570" y2="573.75" />			<text transform="rotate(90,978.365091693888,577.5)" x="978.365091693888" y="577.5">
			</text>			<text transform="rotate(90,976.814805086659,577.5)" x="976.814805086659" y="577.5">
			</text>
			<line style="stroke: black; stroke-width: 2" x1="997.719481320294" x2="997.719481320294" y1="570" y2="573.75" />			<text transform="rotate(90,997.719481320294,577.5)" x="997.719481320294" y="577.5">
			</text>			<text transform="rotate(90,996.169194713065,577.5)" x="996.169194713065" y="577.5">
			</text>
			<line style="stroke: black; stroke-width: 2" x1="1017.0738709467" x2="1017.0738709467" y1="570" y2="573.75" />			<text transform="rotate(90,1017.0738709467,577.5)" x="1017.0738709467" y="577.5">
			</text>			<text transform="rotate(90,1015.52358433947,577.5)" x="1015.52358433947" y="577.5">
			</text>
			<line style="stroke: black; stroke-width: 2" x1="1036.42826057311" x2="1036.42826057311" y1="570" y2="573.75" />			<text transform="rotate(90,1036.42826057311,577.5)" x="1036.42826057311" y="577.5">
			</text>			<text transform="rotate(90,1034.87797396588,577.5)" x="1034.87797396588" y="577.5">
			</text>
			<line style="stroke: black; stroke-width: 2" x1="1055.78265019951" x2="1055.78265019951" y1="570" y2="573.75" />			<text transform="rotate(90,1055.78265019951,577.5)" x="1055.78265019951" y="577.5">
			</text>			<text transform="rotate(90,1054.23236359228,577.5)" x="1054.23236359228" y="577.5">
			</text>
			<line style="stroke: black; stroke-width: 2" x1="1075.13703982592" x2="1075.13703982592" y1="570" y2="573.75" />			<text transform="rotate(90,1075.13703982592,577.5)" x="1075.13703982592" y="577.5">
			</text>			<text transform="rotate(90,1073.58675321869,577.5)" x="1073.58675321869" y="577.5">
			</text>
			<line style="stroke: black; stroke-width: 2" x1="1094.49142945232" x2="1094.49142945232" y1="570" y2="573.75" />			<text transform="rotate(90,1094.49142945232,577.5)" x="1094.49142945232" y="577.5">
			</text>			<text transform="rotate(90,1092.94114284509,577.5)" x="1092.94114284509" y="577.5">
			</text>
			<line style="stroke: black; stroke-width: 2" x1="1113.84581907873" x2="1113.84581907873" y1="570" y2="573.75" />			<text transform="rotate(90,1113.84581907873,577.5)" x="1113.84581907873" y="577.5">
			</text>			<text transform="rotate(90,1112.2955324715,577.5)" x="1112.2955324715" y="577.5">
			</text>
			<line style="stroke: black; stroke-width: 2" x1="1133.20020870514" x2="1133.20020870514" y1="570" y2="573.75" />			<text transform="rotate(90,1133.20020870514,577.5)" x="1133.20020870514" y="577.5">
			</text>			<text transform="rotate(90,1131.64992209791,577.5)" x="1131.64992209791" y="577.5">
			</text>
			<line style="stroke: black; stroke-width: 2" x1="1152.55459833154" x2="1152.55459833154" y1="570" y2="573.75" />			<text transform="rotate(90,1152.55459833154,577.5)" x="1152.55459833154" y="577.5">
			</text>			<text transform="rotate(90,1151.00431172431,577.5)" x="1151.00431172431" y="577.5">
			</text>
			<line style="stroke: black; stroke-width: 2" x1="30" x2="26.25" y1="570" y2="570" />			<text x="0" y="570">
			</text>			<text x="20.4897381188726" y="570">
			</text>
		</g>
		<g id="linen6037140">
			<line style="fill: red; fill-opacity: 0.5; stroke: red" x1="30" x2="38.0175559088912" y1="44.1202183320457" y2="36.4869346841109" />
			<line style="fill: red; fill-opacity: 0.5; stroke: red" x1="38.0175559088912" x2="45.9444687154001" y1="36.4869346841109" y2="30" />
			<line style="fill: red; fill-opacity: 0.5; stroke: red" x1="45.9444687154001" x2="53.9068646126256" y1="30" y2="32.556962949037" />
			<line style="fill: red; fill-opacity: 0.5; stroke: red" x1="53.9068646126256" x2="61.9370008858486" y1="32.556962949037" y2="37.3756837310274" />
			<line style="fill: red; fill-opacity: 0.5; stroke: red" x1="61.9370008858486" x2="70.1126176464318" y1="37.3756837310274" y2="47.4545608054304" />
			<line style="fill: red; fill-opacity: 0.5; stroke: red" x1="70.1126176464318" x2="78.4108121679904" y1="47.4545608054304" y2="55.672414208124" />
			<line style="fill: red; fill-opacity: 0.5; stroke: red" x1="78.4108121679904" x2="86.8025529706788" y1="55.672414208124" y2="61.7824210509808" />
			<line style="fill: red; fill-opacity: 0.5; stroke: red" x1="86.8025529706788" x2="95.4626745714833" y1="61.7824210509808" y2="78.5792086524181" />
			<line style="fill: red; fill-opacity: 0.5; stroke: red" x1="95.4626745714833" x2="104.109570708395" y1="78.5792086524181" y2="77.7759091028549" />
			<line style="fill: red; fill-opacity: 0.5; stroke: red" x1="104.109570708395" x2="112.937107873602" y1="77.7759091028549" y2="88.5397542591164" />
			<line style="fill: red; fill-opacity: 0.5; stroke: red" x1="112.937107873602" x2="121.861739521341" y1="88.5397542591164" y2="94.1452695097371" />
			<line style="fill: red; fill-opacity: 0.5; stroke: red" x1="121.861739521341" x2="130.725082250138" y1="94.1452695097371" y2="90.6211959936727" />
			<line style="fill: red; fill-opacity: 0.5; stroke: red" x1="130.725082250138" x2="139.59810216452" y1="90.6211959936727" y2="91.1808645560772" />
			<line style="fill: red; fill-opacity: 0.5; stroke: red" x1="139.59810216452" x2="148.567894011652" y1="91.1808645560772" y2="96.7111358376696" />
			<line style="fill: red; fill-opacity: 0.5; stroke: red" x1="148.567894011652" x2="157.699295065692" y1="96.7111358376696" y2="105.685365063722" />
			<line style="fill: red; fill-opacity: 0.5; stroke: red" x1="157.699295065692" x2="166.953273880708" y1="105.685365063722" y2="112.283126491527" />
			<line style="fill: red; fill-opacity: 0.5; stroke: red" x1="166.953273880708" x2="176.530148405944" y1="112.283126491527" y2="128.854588246077" />
			<line style="fill: red; fill-opacity: 0.5; stroke: red" x1="176.530148405944" x2="186.449273089477" y1="128.854588246077" y2="145.241508973103" />
			<line style="fill: red; fill-opacity: 0.5; stroke: red" x1="186.449273089477" x2="196.588070093424" y1="145.241508973103" y2="155.176475362818" />
			<line style="fill: red; fill-opacity: 0.5; stroke: red" x1="196.588070093424" x2="206.952668325061" y1="155.176475362818" y2="164.949708097679" />
			<line style="fill: red; fill-opacity: 0.5; stroke: red" x1="206.952668325061" x2="217.588550610468" y1="164.949708097679" y2="176.142775378993" />
			<line style="fill: red; fill-opacity: 0.5; stroke: red" x1="217.588550610468" x2="228.392493406025" y1="176.142775378993" y2="182.794905278546" />
			<line style="fill: red; fill-opacity: 0.5; stroke: red" x1="228.392493406025" x2="239.861582147007" y1="182.794905278546" y2="207.209898096308" />
			<line style="fill: red; fill-opacity: 0.5; stroke: red" x1="239.861582147007" x2="251.743887073904" y1="207.209898096308" y2="221.000987071882" />
			<line style="fill: red; fill-opacity: 0.5; stroke: red" x1="251.743887073904" x2="264.226500672068" y1="221.000987071882" y2="239.409522527528" />
			<line style="fill: red; fill-opacity: 0.5; stroke: red" x1="264.226500672068" x2="276.76104855337" y1="239.409522527528" y2="240.919222970581" />
			<line style="fill: red; fill-opacity: 0.5; stroke: red" x1="276.76104855337" x2="289.192373044865" y1="240.919222970581" y2="237.906196949463" />
			<line style="fill: red; fill-opacity: 0.5; stroke: red" x1="289.192373044865" x2="301.69143783545" y1="237.906196949463" y2="239.889107070875" />
			<line style="fill: red; fill-opacity: 0.5; stroke: red" x1="301.69143783545" x2="314.145342426642" y1="239.889107070875" y2="238.569563791564" />
			<line style="fill: red; fill-opacity: 0.5; stroke: red" x1="314.145342426642" x2="326.508603915451" y1="238.569563791564" y2="235.891955685277" />
			<line style="fill: red; fill-opacity: 0.5; stroke: red" x1="326.508603915451" x2="338.710578900948" y1="235.891955685277" y2="231.029163801179" />
			<line style="fill: red; fill-opacity: 0.5; stroke: red" x1="338.710578900948" x2="351.05126029006" y1="231.029163801179" y2="235.218817074279" />
			<line style="fill: red; fill-opacity: 0.5; stroke: red" x1="351.05126029006" x2="363.721611473138" y1="235.218817074279" y2="244.808454921463" />
			<line style="fill: red; fill-opacity: 0.5; stroke: red" x1="363.721611473138" x2="376.837113577631" y1="244.808454921463" y2="256.992304953179" />
			<line style="fill: red; fill-opacity: 0.5; stroke: red" x1="376.837113577631" x2="390.698727390532" y1="256.992304953179" y2="275.658507777803" />
			<line style="fill: red; fill-opacity: 0.5; stroke: red" x1="390.698727390532" x2="404.983557278528" y1="275.658507777803" y2="285.379802928192" />
			<line style="fill: red; fill-opacity: 0.5; stroke: red" x1="404.983557278528" x2="419.859018575299" y1="285.379802928192" y2="298.021979882636" />
			<line style="fill: red; fill-opacity: 0.5; stroke: red" x1="419.859018575299" x2="436.148640550836" y1="298.021979882636" y2="324.56608881365" />
			<line style="fill: red; fill-opacity: 0.5; stroke: red" x1="436.148640550836" x2="453.933389198844" y1="324.56608881365" y2="348.039169597744" />
			<line style="fill: red; fill-opacity: 0.5; stroke: red" x1="453.933389198844" x2="473.083912597696" y1="348.039169597744" y2="366.278191370139" />
			<line style="fill: red; fill-opacity: 0.5; stroke: red" x1="473.083912597696" x2="493.66795112339" y1="366.278191370139" y2="382.818434453777" />
			<line style="fill: red; fill-opacity: 0.5; stroke: red" x1="493.66795112339" x2="513.987479602149" y1="382.818434453777" y2="379.942037615977" />
			<line style="fill: red; fill-opacity: 0.5; stroke: red" x1="513.987479602149" x2="534.161527670455" y1="379.942037615977" y2="378.327869805144" />
			<line style="fill: red; fill-opacity: 0.5; stroke: red" x1="534.161527670455" x2="554.383961666684" y1="378.327869805144" y2="378.867310167208" />
			<line style="fill: red; fill-opacity: 0.5; stroke: red" x1="554.383961666684" x2="574.829293711854" y1="378.867310167208" y2="381.319361254062" />
			<line style="fill: red; fill-opacity: 0.5; stroke: red" x1="574.829293711854" x2="596.240087236065" y1="381.319361254062" y2="391.350699183567" />
			<line style="fill: red; fill-opacity: 0.5; stroke: red" x1="596.240087236065" x2="619.862442331027" y1="391.350699183567" y2="411.238827792594" />
			<line style="fill: red; fill-opacity: 0.5; stroke: red" x1="619.862442331027" x2="646.236023925533" y1="411.238827792594" y2="431.324431151016" />
			<line style="fill: red; fill-opacity: 0.5; stroke: red" x1="646.236023925533" x2="672.680571624565" y1="431.324431151016" y2="431.787234564066" />
			<line style="fill: red; fill-opacity: 0.5; stroke: red" x1="672.680571624565" x2="702.247627538191" y1="431.787234564066" y2="449.951180706931" />
			<line style="fill: red; fill-opacity: 0.5; stroke: red" x1="702.247627538191" x2="734.491072941839" y1="449.951180706931" y2="462.719996816619" />
			<line style="fill: red; fill-opacity: 0.5; stroke: red" x1="734.491072941839" x2="769.976701142309" y1="462.719996816619" y2="475.608260074356" />
			<line style="fill: red; fill-opacity: 0.5; stroke: red" x1="769.976701142309" x2="814.922755014316" y1="475.608260074356" y2="502.586738615663" />
			<line style="fill: red; fill-opacity: 0.5; stroke: red" x1="814.922755014316" x2="874.853945106865" y1="502.586738615663" y2="527.889450320826" />
			<line style="fill: red; fill-opacity: 0.5; stroke: red" x1="874.853945106865" x2="951.158948743369" y1="527.889450320826" y2="544.174712818395" />
			<line style="fill: red; fill-opacity: 0.5; stroke: red" x1="951.158948743369" x2="1035.36183370654" y1="544.174712818395" y2="549.76560937136" />
			<line style="fill: red; fill-opacity: 0.5; stroke: red" x1="1035.36183370654" x2="1170" y1="549.76560937136" y2="570" />
		</g>
		<g id="scattern7198723">
			<circle cx="30" cy="644.120218332046" r="3" style="fill: black; fill-opacity: 0.8" />
			<circle cx="38.0175559088912" cy="636.486934684111" r="3" style="fill: black; fill-opacity: 0.8" />
			<circle cx="45.9444687154001" cy="630" r="3" style="fill: black; fill-opacity: 0.8" />
			<circle cx="53.9068646126256" cy="632.556962949037" r="3" style="fill: black; fill-opacity: 0.8" />
			<circle cx="61.9370008858486" cy="637.375683731027" r="3" style="fill: black; fill-opacity: 0.8" />
			<circle cx="70.1126176464318" cy="647.45456080543" r="3" style="fill: black; fill-opacity: 0.8" />
			<circle cx="78.4108121679904" cy="655.672414208124" r="3" style="fill: black; fill-opacity: 0.8" />
			<circle cx="86.8025529706788" cy="661.782421050981" r="3" style="fill: black; fill-opacity: 0.8" />
			<circle cx="95.4626745714833" cy="678.579208652418" r="3" style="fill: black; fill-opacity: 0.8" />
			<circle cx="104.109570708395" cy="677.775909102855" r="3" style="fill: black; fill-opacity: 0.8" />
			<circle cx="112.937107873602" cy="688.539754259116" r="3" style="fill: black; fill-opacity: 0.8" />
			<circle cx="121.861739521341" cy="694.145269509737" r="3" style="fill: black; fill-opacity: 0.8" />
			<circle cx="130.725082250138" cy="690.621195993673" r="3" style="fill: black; fill-opacity: 0.8" />
			<circle cx="139.59810216452" cy="691.180864556077" r="3" style="fill: black; fill-opacity: 0.8" />
			<circle cx="148.567894011652" cy="696.71113583767" r="3" style="fill: black; fill-opacity: 0.8" />
			<circle cx="157.699295065692" cy="705.685365063722" r="3" style="fill: black; fill-opacity: 0.8" />
			<circle cx="166.953273880708" cy="712.283126491526" r="3" style="fill: black; fill-opacity: 0.8" />
			<circle cx="176.530148405944" cy="728.854588246077" r="3" style="fill: black; fill-opacity: 0.8" />
			<circle cx="186.449273089477" cy="745.241508973103" r="3" style="fill: black; fill-opacity: 0.8" />
			<circle cx="196.588070093424" cy="755.176475362818" r="3" style="fill: black; fill-opacity: 0.8" />
			<circle cx="206.952668325061" cy="764.949708097679" r="3" style="fill: black; fill-opacity: 0.8" />
			<circle cx="217.588550610468" cy="776.142775378993" r="3" style="fill: black; fill-opacity: 0.8" />
			<circle cx="228.392493406025" cy="782.794905278546" r="3" style="fill: black; fill-opacity: 0.8" />
			<circle cx="239.861582147007" cy="807.209898096308" r="3" style="fill: black; fill-opacity: 0.8" />
			<circle cx="251.743887073904" cy="821.000987071882" r="3" style="fill: black; fill-opacity: 0.8" />
			<circle cx="264.226500672068" cy="839.409522527528" r="3" style="fill: black; fill-opacity: 0.8" />
			<circle cx="276.76104855337" cy="840.919222970581" r="3" style="fill: black; fill-opacity: 0.8" />
			<circle cx="289.192373044865" cy="837.906196949463" r="3" style="fill: black; fill-opacity: 0.8" />
			<circle cx="301.69143783545" cy="839.889107070875" r="3" style="fill: black; fill-opacity: 0.8" />
			<circle cx="314.145342426642" cy="838.569563791564" r="3" style="fill: black; fill-opacity: 0.8" />
			<circle cx="326.508603915451" cy="835.891955685277" r="3" style="fill: black; fill-opacity: 0.8" />
			<circle cx="338.710578900948" cy="831.029163801179" r="3" style="fill: black; fill-opacity: 0.8" />
			<circle cx="351.05126029006" cy="835.218817074279" r="3" style="fill: black; fill-opacity: 0.8" />
			<circle cx="363.721611473138" cy="844.808454921463" r="3" style="fill: black; fill-opacity: 0.8" />
			<circle cx="376.837113577631" cy="856.992304953179" r="3" style="fill: black; fill-opacity: 0.8" />
			<circle cx="390.698727390532" cy="875.658507777803" r="3" style="fill: black; fill-opacity: 0.8" />
			<circle cx="404.983557278528" cy="885.379802928192" r="3" style="fill: black; fill-opacity: 0.8" />
			<circle cx="419.859018575299" cy="898.021979882636" r="3" style="fill: black; fill-opacity: 0.8" />
			<circle cx="436.148640550836" cy="924.56608881365" r="3" style="fill: black; fill-opacity: 0.8" />
			<circle cx="453.933389198844" cy="948.039169597744" r="3" style="fill: black; fill-opacity: 0.8" />
			<circle cx="473.083912597696" cy="966.278191370139" r="3" style="fill: black; fill-opacity: 0.8" />
			<circle cx="493.66795112339" cy="982.818434453777" r="3" style="fill: black; fill-opacity: 0.8" />
			<circle cx="513.987479602149" cy="979.942037615977" r="3" style="fill: black; fill-opacity: 0.8" />
			<circle cx="534.161527670455" cy="978.327869805144" r="3" style="fill: black; fill-opacity: 0.8" />
			<circle cx="554.383961666684" cy="978.867310167208" r="3" style="fill: black; fill-opacity: 0.8" />
			<circle cx="574.829293711854" cy="981.319361254062" r="3" style="fill: black; fill-opacity: 0.8" />
			<circle cx="596.240087236065" cy="991.350699183567" r="3" style="fill: black; fill-opacity: 0.8" />
			<circle cx="619.862442331027" cy="1011.23882779259" r="3" style="fill: black; fill-opacity: 0.8" />
			<circle cx="646.236023925533" cy="1031.32443115102" r="3" style="fill: black; fill-opacity: 0.8" />
			<circle cx="672.680571624565" cy="1031.78723456407" r="3" style="fill: black; fill-opacity: 0.8" />
			<circle cx="702.247627538191" cy="1049.95118070693" r="3" style="fill: black; fill-opacity: 0.8" />
			<circle cx="734.491072941839" cy="1062.71999681662" r="3" style="fill: black; fill-opacity: 0.8" />
			<circle cx="769.976701142309" cy="1075.60826007436" r="3" style="fill: black; fill-opacity: 0.8" />
			<circle cx="814.922755014316" cy="1102.58673861566" r="3" style="fill: black; fill-opacity: 0.8" />
			<circle cx="874.853945106865" cy="1127.88945032083" r="3" style="fill: black; fill-opacity: 0.8" />
			<circle cx="951.158948743369" cy="1144.17471281839" r="3" style="fill: black; fill-opacity: 0.8" />
			<circle cx="1035.36183370654" cy="1149.76560937136" r="3" style="fill: black; fill-opacity: 0.8" />
			<circle cx="1170" cy="1170" r="3" style="fill: black; fill-opacity: 0.8" />
		</g>
	</g><!-- 
	Generated using the Perl SVG Module V2.49
	by Ronan Oger
	Info: http://www.roitsystems.com/
 -->
</svg>
